<svg id="barryfearon" xmlns="http://www.w3.org/2000/svg" viewBox="0 0 442.43 135.55"><g id="barry"><path d="M361.18,120.5V118l.45,0c11.12-1.21,11.12-10.32,11.12-20V66l-28.4-44.73c-.56-.87-1.12-1.78-1.7-2.72-3.78-6.1-8.06-13-15.54-13.61l-.46,0V2.38h47.1V5l-.47,0c-5.47.31-8.25,2.48-8.25,6.45,0,3.77,2.37,9.37,7,16.64L388.2,53.9l15.95-26.18c4.35-7.12,7.94-13.36,7.94-17.54,0-2-.76-4.78-7.36-5.2l-.47,0V2.38h35.53V4.91l-.42.07c-7.29,1.19-10.71,4.14-17.45,15.07L393.33,66V96.69c0,10.17,0,20.69,11.1,21.21l.47,0v2.58Zm-358.54,0V118l.43-.06c11.14-1.57,11.14-10.93,11.14-20V26.2C14.21,17,14.21,6.55,3.07,5l-.43-.06V2.38H68.46c9.46,0,29.16,0,29.16,15.63,0,10.31-6.15,15.42-25.77,26.06,9.66,3.26,25.79,10.51,33.53,24.15l.11.21-.6,1.6a58.54,58.54,0,0,1-5.82,12,9.48,9.48,0,0,1-6.57,4.22v.24h17.18l0,.53c-1.48,29.5-32.09,33.47-61.84,33.47ZM34.79,97.75c0,11.52,1,13.57,13.38,13.57,15,0,40.26-3.78,40.26-29,0-16.49-14.65-28.6-27.28-34L34.79,58.23ZM53.51,11.57c-9.55,0-15.29,1.13-17,3.37-.76,1-1.67,3.74-1.67,10.9v23C61,41.21,75.44,31.47,75.44,21.39,75.44,14.69,68.47,11.57,53.51,11.57Z" fill="#ed1c27"/><path d="M439.29,2.88V4.49c-7.65,1.24-11.21,4.62-17.8,15.3l-28.66,46.1v30.8c0,10.68.18,21.18,11.57,21.71V120H361.68v-1.6c11.4-1.24,11.57-10.5,11.57-20.47v-32L344.78,21c-4.28-6.59-8.73-15.84-17.63-16.55V2.88h46.1V4.49c-6.4.35-8.72,3.2-8.72,6.94,0,5,3.92,11.92,7.12,16.91l16.56,26.52L404.58,28c4.45-7.3,8-13.53,8-17.8,0-3.2-2.14-5.34-7.83-5.69V2.88h34.53m-370.83,0C79,2.88,97.12,3.24,97.12,18c0,10.15-6.05,15.13-26.52,26.17C84,48.52,98.08,56.36,104.94,68.47l-.52,1.38a60.18,60.18,0,0,1-5.76,11.9c-1.92,2.69-3.59,3.46-6.66,4.1V87h17.15c-1.46,29.1-31.48,33-61.34,33H3.14v-1.6c11.39-1.6,11.57-10.86,11.57-20.47V26.2c0-9.79-.18-20.11-11.57-21.71V2.88H68.46M34.29,49.52c11.74-3.38,41.65-13,41.65-28.13,0-7.65-8.37-10.32-22.43-10.32-4.63,0-14.77.18-17.44,3.56-1.61,2.14-1.78,8-1.78,11.21V49.52m13.88,62.3c18.87,0,40.76-5.7,40.76-29.55,0-16.2-13.88-28.66-27.77-34.53L34.29,57.88V97.75c0,11.57,1.06,14.07,13.88,14.07M440.29,1.88H403.76V5.42l.94.06c6.18.39,6.89,2.87,6.89,4.7,0,4.05-3.72,10.48-7.86,17.28L388.2,53,372.5,27.81c-4.63-7.2-7-12.71-7-16.38s2.55-5.66,7.78-5.95l.94-.05V1.88h-48.1V5.41l.92.07c7.23.58,11.44,7.38,15.15,13.37.59,1,1.15,1.86,1.72,2.73l28.31,44.6V97.93c0,11.06-.74,18.39-10.67,19.48l-.9.09V121H405.4v-3.55l-.95,0c-9.88-.46-10.62-8.5-10.62-20.71V66.18l28.51-45.86c6.65-10.78,10-13.69,17.11-14.85l.84-.13V1.88Zm-371.83,0H2.14V5.35L3,5.48C12.94,6.87,13.71,15,13.71,26.2V97.93C13.71,108.79,13,116,3,117.41l-.86.12V121H47.81c30,0,60.84-4,62.34-33.95l0-1H95.11a9.55,9.55,0,0,0,4.36-3.66,58.81,58.81,0,0,0,5.88-12.14l.53-1.38.16-.44-.23-.4C98.28,54.68,82.9,47.41,73.09,44c19-10.37,25-15.56,25-25.95,0-16.13-20-16.13-29.66-16.13ZM35.29,48.18V25.84c0-7.4,1-9.82,1.58-10.61,1.13-1.43,5-3.16,16.64-3.16,14.62,0,21.43,3,21.43,9.32,0,9.76-14.07,19.26-39.65,26.79Zm0,10.39,25.85-9.75C73.58,54.19,87.93,66.1,87.93,82.27c0,10.38-4.3,18.07-12.8,22.84s-19.28,5.71-27,5.71c-12,0-12.88-1.81-12.88-13.07V58.57Z" fill="#fff"/><path d="M304,87.5V85.43l.41-.07c3-.55,4.33-1.9,4.33-4.5,0-10.8-12.32-28.88-19.77-38.08L274,47.68V70.23c0,8.69.39,14.07,7.89,15.13l.43.06V87.5h-59V85.43l.41-.07c3-.55,4.33-1.9,4.33-4.5,0-10.8-12.32-28.88-19.77-38.08l-14.95,4.9V70.23c0,8.69.39,14.07,7.9,15.13l.43.06V87.5H149v-2l.39-.09c3.95-.88,5.88-3.65,5.88-8.47,0-9.11-10.3-27.1-34.1-27.65L113.59,70c-1.1,3.17-2,6-2,8.92,0,4.09,3.41,6.19,6.58,6.41l.46,0V87.5H91.5V85.44l.4-.08c2.95-.61,4.49-1.29,6.35-3.9A57.48,57.48,0,0,0,104,69.67l20.61-54.4.29-.78A19.1,19.1,0,0,0,126.45,8c0-2.19-1.84-3.3-3.56-3.6l-.41-.07V2.28H151.9v2l-.37.1c-2.28.63-3.35,1.94-3.35,4.13a15.51,15.51,0,0,0,1.13,4.82l22,63.36c1,2.92,1.84,5.26,3.62,6.82,3.33-2.64,3.33-7.67,3.33-12.54V19.54c0-6.56,0-14-7.89-15.12L170,4.36V2.28h50c13.27,0,18.94,4.05,18.94,13.55,0,10-9.08,16.39-18.14,21.26,8.53,9.68,16,22.4,22.07,37.82,3.19,8,4.75,9.56,8.39,10.4,7.66-1.32,7.66-7.63,7.66-14.31V19.54c0-6.56,0-14-7.89-15.12l-.43-.06V2.28h50c13.27,0,18.93,4.05,18.93,13.55,0,10-9.07,16.39-18.13,21.26,8.53,9.68,16,22.4,22.07,37.82,3.23,8.15,4.82,9.63,8.6,10.45l.39.09v2ZM123.19,42.6c8.79.17,17.93,3.4,24,8.44L134.1,13.83ZM289.76,9.16c-3.33,0-12.18,0-14.33,2.64-1.32,1.71-1.43,6.26-1.43,7.62V40.64c5.23-1.53,30.62-9.62,30.62-21.86C304.62,9.91,297,9.16,289.76,9.16Zm-80.64,0c-3.33,0-12.18,0-14.33,2.64-1.32,1.71-1.43,6.26-1.43,7.62V40.64C198.59,39.11,224,31,224,18.78,224,9.91,216.31,9.16,209.12,9.16Z" fill="#ed1c27"/><path d="M300.64,2.78c13.83,0,18.44,4.35,18.44,13.05,0,10.5-10.25,16.77-18.44,21.12,9.86,11,17,24.58,22.4,38.15,3.2,8.06,4.87,9.86,9,10.75V87H304.48V85.85c2.82-.51,4.74-1.79,4.74-5,0-10.5-11.65-28.29-20.1-38.66l-15.61,5.12V70.23c0,8.07.12,14.47,8.32,15.62V87h-58V85.85c2.82-.51,4.74-1.79,4.74-5,0-10.5-11.65-28.29-20.1-38.66l-15.61,5.12V70.23c0,8.07.12,14.47,8.32,15.62V87H149.48V85.85c4.6-1,6.27-4.48,6.27-9,0-9.73-10.63-27.78-34.95-28.16l-7.68,21.12c-1,2.94-2.05,6-2.05,9.09,0,4.09,3.33,6.66,7,6.91V87H92V85.85c3.07-.64,4.74-1.41,6.66-4.1a60.18,60.18,0,0,0,5.76-11.9L125,15.45C125.92,13,127,10.58,127,8c0-2.3-1.8-3.71-4-4.09V2.78H151.4V3.93c-2.31.64-3.72,2.05-3.72,4.61a16.49,16.49,0,0,0,1.16,5l21.88,63c1.17,3.32,2,5.95,4.21,7.66,3.76-2.65,3.85-7.75,3.85-13.17V19.54c0-7-.12-14.46-8.32-15.61V2.78H220c13.83,0,18.44,4.35,18.44,13.05,0,10.5-10.25,16.77-18.44,21.12,9.86,11,17,24.58,22.4,38.15,3.17,8,4.84,9.82,8.84,10.72,8.05-1.33,8.18-7.82,8.18-14.82V19.54c0-7-.12-14.46-8.32-15.61V2.78h49.54M273.51,41.31c9.08-2.57,31.61-10.63,31.61-22.53,0-9.22-7.81-10.12-15.36-10.12-3.71,0-12.41,0-14.72,2.82-1.28,1.66-1.53,5.63-1.53,7.94V41.31m-80.64,0c9.08-2.57,31.61-10.63,31.61-22.53,0-9.22-7.81-10.12-15.36-10.12-3.71,0-12.41,0-14.72,2.82-1.28,1.66-1.53,5.63-1.53,7.94V41.31M148.32,52.7l-14.2-40.32L122.47,43.1c9.47,0,19.71,3.71,25.85,9.6M300.64,1.78H250.1v3l.86.12c6.93,1,7.46,6.67,7.46,14.62V71c0,7.78-.48,12.61-7.15,13.8-3.37-.8-4.86-2.31-7.94-10.07C237.3,59.5,230,46.9,221.59,37.24c6.46-3.47,17.85-10.16,17.85-21.41,0-9.85-5.82-14-19.44-14H169.46v3l.86.12c6.93,1,7.46,6.67,7.46,14.62V71c0,5.42-.21,9.52-2.82,11.87-1.46-1.48-2.22-3.65-3.16-6.32l-.13-.37-21.89-63a15.22,15.22,0,0,1-1.1-4.66c0-1.95.92-3.08,3-3.65l.74-.2V1.78H122v3l.82.14C123.54,5,126,5.65,126,8a18.29,18.29,0,0,1-1.57,6.3l-.29.78L103.48,69.5a57.09,57.09,0,0,1-5.64,11.69c-1.76,2.45-3.22,3.09-6,3.68L91,85v3h28.11V84.92l-.93-.07c-2.94-.2-6.11-2.14-6.11-5.91,0-2.8.91-5.63,2-8.76l7.43-20.43c12.81.39,20.75,5.77,25.18,10.26,6,6,8.07,12.87,8.07,16.88,0,4.55-1.8,7.16-5.49,8l-.78.18v3h53.71V85l-.87-.12c-7.11-1-7.45-6-7.45-14.63V48.05l14.27-4.68c9.45,11.72,19.44,28.26,19.44,37.49,0,2.34-1.14,3.5-3.92,4l-.82.15v3h60V85l-.87-.12c-7.11-1-7.45-6-7.45-14.63V48.05l14.27-4.68c9.45,11.72,19.44,28.26,19.44,37.49,0,2.34-1.14,3.5-3.92,4l-.82.15v3H333v-3l-.78-.18c-3.58-.78-5.1-2.21-8.25-10.14-6-15.23-13.34-27.83-21.74-37.49,6.46-3.47,17.85-10.16,17.85-21.41,0-9.85-5.82-14-19.44-14ZM274.51,40V19.42c0-2.71.34-6.06,1.32-7.33,2-2.43,11-2.43,13.93-2.43,8.87,0,14.36,1.53,14.36,9.12,0,11.46-23.3,19.28-29.61,21.19Zm-80.64,0V19.42c0-2.71.34-6.06,1.32-7.33,2-2.43,11-2.43,13.93-2.43,8.87,0,14.36,1.53,14.36,9.12,0,11.46-23.3,19.28-29.61,21.19Zm-70,2.15,10.18-26.83L146.17,49.6a41.55,41.55,0,0,0-22.27-7.48Z" fill="#fff"/></g><g id="fearon"><path d="M132.8,131.44v-.33c2.48-.31,2.84-2.89,2.84-5.67V104.23c0-2.78-.36-5.36-2.84-5.67v-.33h24.9a5.68,5.68,0,0,0,2.34-.38l2.23,10.78-.16.06a11.61,11.61,0,0,0-11.33-8c-4.31,0-5.49,1.17-5.49,5.44v3.67h3.46c4.86,0,6.27-.92,6.37-4.41l.16,0,1.59,13h-.12c-.92-4.32-3.75-6.09-9.66-6.09h-1.8v11.74c0,5.77,1.46,7,3.17,7.18v.32Z" fill="#ed1c27"/><path d="M159.66,98.51l1.47,7.1a11.86,11.86,0,0,0-10.35-5.45c-4.59,0-6,1.39-6,5.94v4.17h4c3.66,0,5.54-.57,6.35-2.27l.87,7.08c-2-2.9-5.5-3.38-8.88-3.38h-2.3v12.24c0,3.71.59,6,1.91,7H134.52c1.61-1.27,1.61-4,1.61-5.5V104.23c0-1.51,0-4.23-1.61-5.5H157.7a7.18,7.18,0,0,0,2-.22m.69-1.62c-.16.42-.78.84-2.65.84H132.32l0,1.3c2.13,0,2.86,1.56,2.86,5.2v21.21c0,3.64-.73,5.2-2.86,5.2l0,1.3H149v-1.3c-1.51,0-3.17-.52-3.17-6.7V112.7h1.3c5.46,0,8.42,1.46,9.25,6.09h1.1l-1.72-14-1.09.1c0,3.38-.83,4.37-5.88,4.37h-3V106.1c0-4.06,1-4.94,5-4.94,4.94,0,9.15,2.6,11,8.16l1-.36-2.49-12.07Z" fill="#fff"/><path d="M191,131.94a5.92,5.92,0,0,0-2.87-.5H162.82v-.33c2.5-.29,2.86-2.88,2.86-5.67V104.23c0-2.79-.36-5.38-2.86-5.68v-.32h23.11c2.23,0,3.31-.07,4-.46l2.38,10.75-.23.07a11.83,11.83,0,0,0-11.5-7.93c-4.8,0-5.29,1.25-5.29,6.58v2.17h2.17c4.79,0,7.14-.44,7.3-4.28l.14,0,2.11,12.2-.13,0a10.52,10.52,0,0,0-2.53-3.69c-1.19-1.07-2.87-1.79-7.15-1.79h-1.91v11.78c0,4,1.4,5.39,5.55,5.39,6,0,10.71-3.21,13.92-9.54l.22.08Z" fill="#ed1c27"/><path d="M189.62,98.45l1.58,7.15a12.46,12.46,0,0,0-10.57-5.44c-5.34,0-5.79,1.73-5.79,7.08v2.67h2.67c3.62,0,6.29-.22,7.33-2.52l1.29,7.46a10.21,10.21,0,0,0-1.4-1.59c-1.28-1.15-3-1.92-7.48-1.92h-2.41v12.28c0,4.3,1.64,5.89,6,5.89,5.2,0,9.42-2.3,12.6-6.84l-2.81,8.58a8,8,0,0,0-2.56-.31H164.57c1.61-1.27,1.61-4,1.61-5.5V104.23c0-1.51,0-4.23-1.61-5.5h21.36a14.49,14.49,0,0,0,3.69-.28m.68-1.56c-.62.68-1.3.84-4.37.84H162.32V99c2.13,0,2.86,1.56,2.86,5.2v21.21c0,3.64-.73,5.2-2.86,5.2v1.3h25.8c1.4,0,2.49.11,3.12.84l4.42-13.53-1.1-.41c-2.75,5.67-7,9.67-13.67,9.67-4.11,0-5-1.35-5-4.89V112.34h1.41c4.16,0,5.72.67,6.81,1.66a10.18,10.18,0,0,1,2.55,3.85l1-.1-2.29-13.21-1,.15c0,3.75-1.87,4.22-6.81,4.22h-1.67v-1.67c0-5.15.31-6.08,4.79-6.08a11.3,11.3,0,0,1,11.18,8.06l1.14-.37-2.65-12Z" fill="#fff"/><path d="M215.08,131.44v-.35a3.35,3.35,0,0,0,2.86-3.46c0-5.81-7.51-9.18-12.71-9.29h-.36l-2,5.65a15.76,15.76,0,0,0-1,4.37,2.59,2.59,0,0,0,2.39,2.73v.36H193.81V131c2.84-.87,4-3.9,4.86-6.14l8.16-21.42.23-.61a8.2,8.2,0,0,0,.69-2.53,1.66,1.66,0,0,0-1.14-1.7v-.4h14.18v.39a1.59,1.59,0,0,0-1.2,1.71c0,.56,1.82,6,6,18.17l2.18,6.43c.1.26.19.53.28.81.68,2,1.6,4.76,4,5.32v.38ZM205.77,116h.7a14.5,14.5,0,0,1,7.62,2.4l1.21.86L210.12,103Z" fill="#ed1c27"/><path d="M219.65,98.73a2.24,2.24,0,0,0-.55,1.6c0,.58,1,3.66,6,18.26.74,2.19,1.49,4.39,2.21,6.51.09.25.18.52.27.8.58,1.72,1.31,3.92,3,5H216.76a3.87,3.87,0,0,0,1.68-3.31c0-6.12-7.8-9.67-13.2-9.79l-.72,0-.24.69-1.88,5.32a16,16,0,0,0-1,4.53,2.92,2.92,0,0,0,1.2,2.58h-7.33c2.16-1.3,3.15-3.88,3.91-5.87l8.17-21.44c.07-.2.14-.4.22-.59a8.43,8.43,0,0,0,.72-2.71,2.23,2.23,0,0,0-.58-1.6h12m-14.57,17.73h1.39a14.1,14.1,0,0,1,7.33,2.31l2.43,1.71-.9-2.83-4.27-13.31-.93-2.9-1,2.88-3.64,10.82-.44,1.32m16.21-18.73H206.11V99a1.19,1.19,0,0,1,1.14,1.3,11.5,11.5,0,0,1-.88,3l-8.17,21.43c-.93,2.44-2.08,5.3-4.89,5.92v1.3h11.44v-1.3c-1.4-.15-2.39-.67-2.39-2.28a17.37,17.37,0,0,1,1-4.22l1.87-5.3c4.84.1,12.22,3.27,12.22,8.79a2.88,2.88,0,0,1-2.86,3v1.3h17.94v-1.3c-2.75-.31-3.53-3.69-4.31-5.87-3.59-10.61-8.11-23.77-8.11-24.44,0-.89.41-1.2,1.19-1.3v-1.3ZM214.37,118a15,15,0,0,0-7.9-2.49l3.64-10.82L214.37,118Z" fill="#fff"/><path d="M253.41,131.44v-.32a2,2,0,0,0,2.13-2.19c0-3.4-5.3-11-7.51-13.54l-.22-.25-2.48.84v9.46c0,2.79.37,5.38,2.87,5.67v.33H232.87v-.33c2.5-.29,2.86-2.88,2.86-5.67V104.23c0-2.79-.36-5.38-2.86-5.68v-.32h22.9c3.82,0,8.91.49,8.91,4.75,0,3.21-2.39,6.07-7.11,8.5l-.63.32.51.48A34.94,34.94,0,0,1,266,126.53c.34,1.07,1.33,4.21,3.88,4.58v.33Zm-3.62-30.78c-2.89,0-4.46.67-4.46,4.19v8.34L246,113c3.24-.81,8.7-2.91,8.7-7.87C254.66,102.38,252.79,100.66,249.79,100.66Z" fill="#ed1c27"/><path d="M255.77,98.73c5.81,0,8.41,1.31,8.41,4.25s-2.3,5.71-6.84,8l-1.25.64,1,1a34.63,34.63,0,0,1,8.43,14c.28.89,1,3.12,2.61,4.26H255.23a2.61,2.61,0,0,0,.81-2c0-3.78-5.94-11.9-7.63-13.86l-.44-.52-.64.22-1.82.63-.68.23v9.81c0,1.51,0,4.23,1.62,5.5H234.62c1.61-1.27,1.61-4,1.61-5.5V104.23c0-1.51,0-4.23-1.61-5.5h21.15m-10.94,15.1,1.25-.31c5.85-1.47,9.07-4.43,9.07-8.36,0-3.08-2.05-5-5.36-5-3.06,0-5,.78-5,4.69v9m10.94-16.1h-23.4V99c2.13,0,2.86,1.56,2.86,5.2v21.21c0,3.64-.73,5.2-2.86,5.2v1.3h16.32v-1.3c-2.13,0-2.86-1.56-2.86-5.2v-9.1l1.82-.62c2.19,2.55,7.39,10,7.39,13.21,0,1.4-.94,1.71-2.13,1.71v1.3h17.47v-1.3c-2.29,0-3.33-2.44-3.9-4.26a35.61,35.61,0,0,0-8.68-14.46c3.43-1.77,7.38-4.63,7.38-8.94,0-4.94-6-5.25-9.41-5.25Zm-9.94,14.82v-7.7c0-3.07,1.15-3.69,4-3.69,2.6,0,4.36,1.35,4.36,4,0,4.42-4.78,6.5-8.32,7.39Z" fill="#fff"/><path d="M286.71,132.27c-5.45,0-10.35-1.62-13.45-4.44a17.68,17.68,0,0,1-5.29-13.1c0-10.37,7.53-17.34,18.74-17.34,3.13,0,9,.57,13.07,4.34,3.37,3.09,5.3,8,5.3,13.36a17.13,17.13,0,0,1-5,12.48C297,130.47,291.83,132.27,286.71,132.27Zm-1-31.46c-2.5,0-4.71,1.72-6.07,4.72a18.18,18.18,0,0,0-1.24,7.28,27.61,27.61,0,0,0,1.64,9.91c.58,1.44,2.81,6.13,7.28,6.13,2.73,0,5.12-1.85,6.24-4.84a19.12,19.12,0,0,0,1.07-7,27.77,27.77,0,0,0-1.49-9.91C291.94,104,289.36,100.81,285.72,100.81Z" fill="#ed1c27"/><path d="M286.71,97.89c3.06,0,8.78.55,12.74,4.21,3.26,3,5.13,7.73,5.13,13a16.65,16.65,0,0,1-4.82,12.12c-3.05,2.81-8.05,4.57-13.05,4.57-5.33,0-10.11-1.58-13.11-4.32a17.16,17.16,0,0,1-5.13-12.73c0-10.07,7.33-16.84,18.24-16.84m.62,31.47c2.94,0,5.51-2,6.7-5.16a19.51,19.51,0,0,0,1.11-7.23,28.46,28.46,0,0,0-1.52-10.1c-1.27-3.17-4-6.56-7.9-6.56-2.7,0-5.08,1.83-6.53,5a18.82,18.82,0,0,0-1.28,7.48,28,28,0,0,0,1.68,10.09c1.62,4,4.51,6.46,7.74,6.46m-.62-32.47c-10.77,0-19.24,6.66-19.24,17.84a18.1,18.1,0,0,0,5.46,13.47c3.58,3.28,9,4.58,13.78,4.58s10.19-1.56,13.72-4.84,5.15-8.17,5.15-12.85c0-5-1.66-10.24-5.46-13.72-3.53-3.28-8.73-4.48-13.41-4.48Zm.62,31.47c-3.33,0-5.67-3-6.81-5.83a26.61,26.61,0,0,1-1.61-9.72,18.42,18.42,0,0,1,1.19-7.08c1-2.28,2.91-4.42,5.62-4.42,3.38,0,5.82,3.07,7,5.93a28.06,28.06,0,0,1,1.45,9.73,19.19,19.19,0,0,1-1,6.86c-.93,2.5-3,4.53-5.77,4.53Z" fill="#fff"/><path d="M306.08,131.44v-.33c2.5-.29,2.86-2.88,2.86-5.67V104.23c0-2.79-.36-5.38-2.86-5.68v-.32H325v.34a1.88,1.88,0,0,0-1.67,1.86c0,.84.72,2.09,2.2,3.81l6.91,7.86v-7.87c0-1.35,0-5.3-3.17-5.68v-.32h9.45v.32c-2.49.3-2.85,2.89-2.85,5.68v21.16c0,2.79.36,5.38,2.85,5.67v.33h-9.45v-.34a3.2,3.2,0,0,0,2.65-3.37c0-2.69-1.62-4.53-3.19-6.31l-16.32-18.79v22.86c0,3.21.5,5.41,2.81,5.68v.32Z" fill="#ed1c27"/><path d="M336.93,98.73c-1.62,1.27-1.62,4-1.62,5.5v21.16c0,1.5,0,4.22,1.62,5.5h-6.1a3.7,3.7,0,0,0,1.54-3.21c0-2.88-1.68-4.79-3.31-6.64l-15.44-17.78-1.76-2v24.2c0,1.51,0,4.23,1.59,5.5h-5.62c1.61-1.27,1.61-4,1.61-5.5V104.23c0-1.51,0-4.23-1.61-5.5h15.68a2.25,2.25,0,0,0-.73,1.7c0,.62.24,1.72,2.33,4.14l6,6.87,1.75,2v-9.2c0-2.74-.62-4.58-1.85-5.5h5.89m2.24-1H328.72V99c2.13,0,3.17,1.56,3.17,5.2v6.55l-6-6.87c-1.61-1.87-2.08-2.91-2.08-3.48a1.48,1.48,0,0,1,1.67-1.4v-1.3H305.58V99c2.13,0,2.86,1.56,2.86,5.2v21.21c0,3.64-.73,5.2-2.86,5.2v1.3h10.09v-1.3c-2.13,0-2.81-1.56-2.81-5.2V103.91l15.45,17.79c1.56,1.77,3.06,3.48,3.06,6a2.76,2.76,0,0,1-2.65,3v1.25h10.45v-1.3c-2.13,0-2.86-1.56-2.86-5.2V104.23c0-3.64.73-5.2,2.86-5.2v-1.3Z" fill="#fff"/></g><g id="underline1"><rect x="5.64" y="128.27" width="113.98" height="4" fill="#ed1c27"/><path d="M119.11,128.78v3H6.14v-3h113m1-1H5.14v5h115v-5Z" fill="#fff"/></g><g id="underline2"><rect x="351.68" y="128.27" width="87.11" height="4" fill="#ed1c27"/><path d="M438.29,128.78v3H352.18v-3h86.11m1-1H351.18v5h88.11v-5Z" fill="#fff"/></g></svg>